<svg xmlns="http://www.w3.org/2000/svg" viewBox="0 0 1285.77014 150.16667">
  <defs>
    <style>
      .a {
        fill: #1e2630;
      }

      .b {
        fill: #0d1117;
      }

      .c {
        fill: #fff;
      }

      .d {
        fill: #6100bf;
      }

      .e {
        fill: #ff0049;
      }
    </style>
  </defs>
  <g>
    <g>
      <rect class="a" width="1285.77014" height="7.16667"/>
      <rect class="a" y="143" width="1285.77014" height="7.16667"/>
      <rect class="b" y="5.58333" width="1285.77014" height="139"/>
    </g>
    <g>
      <path class="c" d="M68.56154,111.08333a26.51243,26.51243,0,0,1-.60009,6h-36a26.37256,26.37256,0,0,1-.6001-6,25.203,25.203,0,0,1,.6001-6h12a26.37256,26.37256,0,0,1-.6001-6,25.203,25.203,0,0,1,.6001-6,26.37256,26.37256,0,0,1-.6001-6,25.203,25.203,0,0,1,.6001-6,26.37256,26.37256,0,0,1-.6001-6,25.203,25.203,0,0,1,.6001-6,26.37256,26.37256,0,0,1-.6001-6,25.203,25.203,0,0,1,.6001-6,26.37256,26.37256,0,0,1-.6001-6,25.203,25.203,0,0,1,.6001-6h-9a26.37256,26.37256,0,0,1-.6001-6,25.203,25.203,0,0,1,.6001-6h21a25.33111,25.33111,0,0,1,.60009,6,26.51243,26.51243,0,0,1-.60009,6,25.33111,25.33111,0,0,1,.60009,6,26.51243,26.51243,0,0,1-.60009,6,25.33111,25.33111,0,0,1,.60009,6,26.51243,26.51243,0,0,1-.60009,6,25.33111,25.33111,0,0,1,.60009,6,26.51243,26.51243,0,0,1-.60009,6,25.33111,25.33111,0,0,1,.60009,6,26.51243,26.51243,0,0,1-.60009,6,25.33111,25.33111,0,0,1,.60009,6,26.51243,26.51243,0,0,1-.60009,6h12A25.33111,25.33111,0,0,1,68.56154,111.08333Z"/>
      <path class="c" d="M102.46047,105.08333h15a25.33052,25.33052,0,0,1,.6001,6,26.51181,26.51181,0,0,1-.6001,6h-24a26.37256,26.37256,0,0,1-.6001-6,25.203,25.203,0,0,1,.6001-6h-7.5a26.37256,26.37256,0,0,1-.6001-6,25.203,25.203,0,0,1,.6001-6,26.37256,26.37256,0,0,1-.6001-6,25.203,25.203,0,0,1,.6001-6,26.37256,26.37256,0,0,1-.6001-6,25.203,25.203,0,0,1,.6001-6,26.37256,26.37256,0,0,1-.6001-6,25.203,25.203,0,0,1,.6001-6h12a25.33052,25.33052,0,0,1,.6001,6,26.51181,26.51181,0,0,1-.6001,6,25.33052,25.33052,0,0,1,.6001,6,26.51181,26.51181,0,0,1-.6001,6,25.33052,25.33052,0,0,1,.6001,6,26.51181,26.51181,0,0,1-.6001,6h4.5a25.33052,25.33052,0,0,1,.6001,6A26.51181,26.51181,0,0,1,102.46047,105.08333Zm32.1001-30a26.51181,26.51181,0,0,1-.6001,6,25.33052,25.33052,0,0,1,.6001,6,26.51181,26.51181,0,0,1-.6001,6,25.33052,25.33052,0,0,1,.6001,6,26.51181,26.51181,0,0,1-.6001,6,25.33052,25.33052,0,0,1,.6001,6,26.51181,26.51181,0,0,1-.6001,6h-12a26.37256,26.37256,0,0,1-.6001-6,25.203,25.203,0,0,1,.6001-6h-4.5a26.37256,26.37256,0,0,1-.6001-6,25.203,25.203,0,0,1,.6001-6h4.5a26.37256,26.37256,0,0,1-.6001-6,25.203,25.203,0,0,1,.6001-6,26.37256,26.37256,0,0,1-.6001-6,25.203,25.203,0,0,1,.6001-6,26.37256,26.37256,0,0,1-.6001-6,25.203,25.203,0,0,1,.6001-6h12a25.33052,25.33052,0,0,1,.6001,6,26.51181,26.51181,0,0,1-.6001,6A25.33052,25.33052,0,0,1,134.56057,75.08333Z"/>
      <path class="c" d="M193.95949,93.08333a25.33052,25.33052,0,0,1,.6001,6,26.51181,26.51181,0,0,1-.6001,6h-6a25.33052,25.33052,0,0,1,.6001,6,26.51181,26.51181,0,0,1-.6001,6h-30a26.37256,26.37256,0,0,1-.6001-6,25.203,25.203,0,0,1,.6001-6h-6a26.37256,26.37256,0,0,1-.6001-6,25.203,25.203,0,0,1,.6001-6h-6a26.37256,26.37256,0,0,1-.6001-6,25.203,25.203,0,0,1,.6001-6h6a26.37256,26.37256,0,0,1-.6001-6,25.203,25.203,0,0,1,.6001-6h6a26.37256,26.37256,0,0,1-.6001-6,25.203,25.203,0,0,1,.6001-6h30a25.33052,25.33052,0,0,1,.6001,6,26.51181,26.51181,0,0,1-.6001,6h6a25.33052,25.33052,0,0,1,.6001,6,26.51181,26.51181,0,0,1-.6001,6h-12a26.37256,26.37256,0,0,1-.6001-6,25.203,25.203,0,0,1,.6001-6h-18a25.33052,25.33052,0,0,1,.6001,6,26.51181,26.51181,0,0,1-.6001,6h-6a25.33052,25.33052,0,0,1,.6001,6,26.51181,26.51181,0,0,1-.6001,6h6a25.33052,25.33052,0,0,1,.6001,6,26.51181,26.51181,0,0,1-.6001,6h18a26.37256,26.37256,0,0,1-.6001-6,25.203,25.203,0,0,1,.6001-6Z"/>
      <path class="c" d="M254.55861,111.08333a26.51243,26.51243,0,0,1-.60009,6h-12a26.37256,26.37256,0,0,1-.6001-6,25.203,25.203,0,0,1,.6001-6h-6a26.37256,26.37256,0,0,1-.6001-6,25.203,25.203,0,0,1,.6001-6h-18a25.33111,25.33111,0,0,1,.60009,6,26.51243,26.51243,0,0,1-.60009,6h18a25.33111,25.33111,0,0,1,.60009,6,26.51243,26.51243,0,0,1-.60009,6h-24a26.37256,26.37256,0,0,1-.6001-6,25.203,25.203,0,0,1,.6001-6h-6a26.37256,26.37256,0,0,1-.6001-6,25.203,25.203,0,0,1,.6001-6h6a26.37256,26.37256,0,0,1-.6001-6,25.203,25.203,0,0,1,.6001-6h24a26.37256,26.37256,0,0,1-.6001-6,25.203,25.203,0,0,1,.6001-6h-21a26.37256,26.37256,0,0,1-.6001-6,25.203,25.203,0,0,1,.6001-6h27a25.33111,25.33111,0,0,1,.60009,6,26.51243,26.51243,0,0,1-.60009,6h6a25.33111,25.33111,0,0,1,.60009,6,26.51243,26.51243,0,0,1-.60009,6,25.33111,25.33111,0,0,1,.60009,6,26.51243,26.51243,0,0,1-.60009,6,25.33111,25.33111,0,0,1,.60009,6,26.51243,26.51243,0,0,1-.60009,6h6A25.33111,25.33111,0,0,1,254.55861,111.08333Z"/>
      <path class="c" d="M310.95754,105.08333h-6a25.33052,25.33052,0,0,1,.6001,6,26.51181,26.51181,0,0,1-.6001,6h-33a26.37256,26.37256,0,0,1-.6001-6,25.203,25.203,0,0,1,.6001-6h27a26.37256,26.37256,0,0,1-.6001-6,25.203,25.203,0,0,1,.6001-6h-24a26.37256,26.37256,0,0,1-.6001-6,25.203,25.203,0,0,1,.6001-6h-6a26.37256,26.37256,0,0,1-.6001-6,25.203,25.203,0,0,1,.6001-6h6a26.37256,26.37256,0,0,1-.6001-6,25.203,25.203,0,0,1,.6001-6h33a25.33052,25.33052,0,0,1,.6001,6,26.51181,26.51181,0,0,1-.6001,6h-27a25.33052,25.33052,0,0,1,.6001,6,26.51181,26.51181,0,0,1-.6001,6h24a25.33052,25.33052,0,0,1,.6001,6,26.51181,26.51181,0,0,1-.6001,6h6a25.33052,25.33052,0,0,1,.6001,6A26.51181,26.51181,0,0,1,310.95754,105.08333Z"/>
      <path class="c" d="M357.45705,105.08333a25.33052,25.33052,0,0,1,.6001,6,26.51181,26.51181,0,0,1-.6001,6h-15a26.37256,26.37256,0,0,1-.6001-6,25.203,25.203,0,0,1,.6001-6,26.37256,26.37256,0,0,1-.6001-6,25.203,25.203,0,0,1,.6001-6h15a25.33052,25.33052,0,0,1,.6001,6A26.51181,26.51181,0,0,1,357.45705,105.08333Z"/>
      <path class="d" d="M428.55617,111.08333a26.51181,26.51181,0,0,1-.6001,6h-36a26.37317,26.37317,0,0,1-.60009-6,25.20361,25.20361,0,0,1,.60009-6h12a26.37317,26.37317,0,0,1-.60009-6,25.20361,25.20361,0,0,1,.60009-6,26.37317,26.37317,0,0,1-.60009-6,25.20361,25.20361,0,0,1,.60009-6,26.37317,26.37317,0,0,1-.60009-6,25.20361,25.20361,0,0,1,.60009-6,26.37317,26.37317,0,0,1-.60009-6,25.20361,25.20361,0,0,1,.60009-6,26.37317,26.37317,0,0,1-.60009-6,25.20361,25.20361,0,0,1,.60009-6h-9a26.37317,26.37317,0,0,1-.60009-6,25.20361,25.20361,0,0,1,.60009-6h21a25.33052,25.33052,0,0,1,.6001,6,26.51181,26.51181,0,0,1-.6001,6,25.33052,25.33052,0,0,1,.6001,6,26.51181,26.51181,0,0,1-.6001,6,25.33052,25.33052,0,0,1,.6001,6,26.51181,26.51181,0,0,1-.6001,6,25.33052,25.33052,0,0,1,.6001,6,26.51181,26.51181,0,0,1-.6001,6,25.33052,25.33052,0,0,1,.6001,6,26.51181,26.51181,0,0,1-.6001,6,25.33052,25.33052,0,0,1,.6001,6,26.51181,26.51181,0,0,1-.6001,6h12A25.33052,25.33052,0,0,1,428.55617,111.08333Z"/>
      <path class="d" d="M494.5552,111.08333a26.51181,26.51181,0,0,1-.6001,6h-12a26.37256,26.37256,0,0,1-.6001-6,25.203,25.203,0,0,1,.6001-6h-6a26.37256,26.37256,0,0,1-.6001-6,25.203,25.203,0,0,1,.6001-6h-18a25.33052,25.33052,0,0,1,.6001,6,26.51181,26.51181,0,0,1-.6001,6h18a25.33052,25.33052,0,0,1,.6001,6,26.51181,26.51181,0,0,1-.6001,6h-24a26.37256,26.37256,0,0,1-.6001-6,25.203,25.203,0,0,1,.6001-6h-6a26.37256,26.37256,0,0,1-.6001-6,25.203,25.203,0,0,1,.6001-6h6a26.37256,26.37256,0,0,1-.6001-6,25.203,25.203,0,0,1,.6001-6h24a26.37256,26.37256,0,0,1-.6001-6,25.203,25.203,0,0,1,.6001-6h-21a26.37256,26.37256,0,0,1-.6001-6,25.203,25.203,0,0,1,.6001-6h27a25.33052,25.33052,0,0,1,.6001,6,26.51181,26.51181,0,0,1-.6001,6h6a25.33052,25.33052,0,0,1,.6001,6,26.51181,26.51181,0,0,1-.6001,6,25.33052,25.33052,0,0,1,.6001,6,26.51181,26.51181,0,0,1-.6001,6,25.33052,25.33052,0,0,1,.6001,6,26.51181,26.51181,0,0,1-.6001,6h6A25.33052,25.33052,0,0,1,494.5552,111.08333Z"/>
      <path class="d" d="M518.55422,99.08333a26.51181,26.51181,0,0,1-.6001,6h-6a25.33052,25.33052,0,0,1,.6001,6,26.51181,26.51181,0,0,1-.6001,6h-6a26.37256,26.37256,0,0,1-.6001-6,25.203,25.203,0,0,1,.6001-6,26.37256,26.37256,0,0,1-.6001-6,25.203,25.203,0,0,1,.6001-6,26.37256,26.37256,0,0,1-.6001-6,25.203,25.203,0,0,1,.6001-6,26.37256,26.37256,0,0,1-.6001-6,25.203,25.203,0,0,1,.6001-6,26.37256,26.37256,0,0,1-.6001-6,25.203,25.203,0,0,1,.6001-6,26.37256,26.37256,0,0,1-.6001-6,25.203,25.203,0,0,1,.6001-6,26.37256,26.37256,0,0,1-.6001-6,25.203,25.203,0,0,1,.6001-6h12a25.33052,25.33052,0,0,1,.6001,6,26.51181,26.51181,0,0,1-.6001,6,25.33052,25.33052,0,0,1,.6001,6,26.51181,26.51181,0,0,1-.6001,6,25.33052,25.33052,0,0,1,.6001,6,26.51181,26.51181,0,0,1-.6001,6h6a25.33052,25.33052,0,0,1,.6001,6,26.51181,26.51181,0,0,1-.6001,6h-6a25.33052,25.33052,0,0,1,.6001,6,26.51181,26.51181,0,0,1-.6001,6A25.33052,25.33052,0,0,1,518.55422,99.08333Zm-.6001,6h18a25.33052,25.33052,0,0,1,.6001,6,26.51181,26.51181,0,0,1-.6001,6h-18a26.37256,26.37256,0,0,1-.6001-6A25.203,25.203,0,0,1,517.95412,105.08333Zm36-12h-6a25.33052,25.33052,0,0,1,.6001,6,26.51181,26.51181,0,0,1-.6001,6h-12a26.37256,26.37256,0,0,1-.6001-6,25.203,25.203,0,0,1,.6001-6h6a26.37256,26.37256,0,0,1-.6001-6,25.203,25.203,0,0,1,.6001-6h-6a26.37256,26.37256,0,0,1-.6001-6,25.203,25.203,0,0,1,.6001-6h-12a26.37256,26.37256,0,0,1-.6001-6,25.203,25.203,0,0,1,.6001-6h18a25.33052,25.33052,0,0,1,.6001,6,26.51181,26.51181,0,0,1-.6001,6h6a25.33052,25.33052,0,0,1,.6001,6,26.51181,26.51181,0,0,1-.6001,6h6a25.33052,25.33052,0,0,1,.6001,6A26.51181,26.51181,0,0,1,553.95412,93.08333Z"/>
      <path class="d" d="M610.95314,105.08333h-6a25.33052,25.33052,0,0,1,.6001,6,26.51181,26.51181,0,0,1-.6001,6h-33a26.37317,26.37317,0,0,1-.60009-6,25.20361,25.20361,0,0,1,.60009-6h27a26.37317,26.37317,0,0,1-.60009-6,25.20361,25.20361,0,0,1,.60009-6h-24a26.37317,26.37317,0,0,1-.60009-6,25.20361,25.20361,0,0,1,.60009-6h-6a26.37317,26.37317,0,0,1-.60009-6,25.20361,25.20361,0,0,1,.60009-6h6a26.37317,26.37317,0,0,1-.60009-6,25.20361,25.20361,0,0,1,.60009-6h33a25.33052,25.33052,0,0,1,.6001,6,26.51181,26.51181,0,0,1-.6001,6h-27a25.33052,25.33052,0,0,1,.6001,6,26.51181,26.51181,0,0,1-.6001,6h24a25.33052,25.33052,0,0,1,.6001,6,26.51181,26.51181,0,0,1-.6001,6h6a25.33052,25.33052,0,0,1,.6001,6A26.51181,26.51181,0,0,1,610.95314,105.08333Z"/>
      <path class="c" d="M655.80227,111.08333a26.51181,26.51181,0,0,1-.6001,6h-7.5a26.37256,26.37256,0,0,1-.6001-6,25.203,25.203,0,0,1,.6001-6h-3.75a26.37256,26.37256,0,0,1-.6001-6,25.203,25.203,0,0,1,.6001-6h-4.5a26.37256,26.37256,0,0,1-.6001-6,25.203,25.203,0,0,1,.6001-6,26.37256,26.37256,0,0,1-.6001-6,25.203,25.203,0,0,1,.6001-6,26.37256,26.37256,0,0,1-.6001-6,25.203,25.203,0,0,1,.6001-6h4.5a26.37256,26.37256,0,0,1-.6001-6,25.203,25.203,0,0,1,.6001-6h3.75a26.37256,26.37256,0,0,1-.6001-6,25.203,25.203,0,0,1,.6001-6h7.5a25.33052,25.33052,0,0,1,.6001,6,26.51181,26.51181,0,0,1-.6001,6h-3.75a25.33052,25.33052,0,0,1,.6001,6,26.51181,26.51181,0,0,1-.6001,6,25.33052,25.33052,0,0,1,.6001,6,26.51181,26.51181,0,0,1-.6001,6,25.33052,25.33052,0,0,1,.6001,6,26.51181,26.51181,0,0,1-.6001,6,25.33052,25.33052,0,0,1,.6001,6,26.51181,26.51181,0,0,1-.6001,6,25.33052,25.33052,0,0,1,.6001,6,26.51181,26.51181,0,0,1-.6001,6h3.75A25.33052,25.33052,0,0,1,655.80227,111.08333Zm6.8999-78h-7.5a26.37256,26.37256,0,0,1-.6001-6,25.203,25.203,0,0,1,.6001-6h7.5a25.33052,25.33052,0,0,1,.6001,6A26.51181,26.51181,0,0,1,662.70217,33.08333Zm0,84a25.31913,25.31913,0,0,1,.6001,6,26.54208,26.54208,0,0,1-.6001,6h-7.5a26.40252,26.40252,0,0,1-.6001-6,25.19175,25.19175,0,0,1,.6001-6Z"/>
      <path class="e" d="M728.54982,111.083a26.514,26.514,0,0,1-.59961,6h-36a26.34325,26.34325,0,0,1-.60058-6,25.16975,25.16975,0,0,1,.60058-6h12a26.34325,26.34325,0,0,1-.60058-6,25.16975,25.16975,0,0,1,.60058-6,26.34325,26.34325,0,0,1-.60058-6,25.16975,25.16975,0,0,1,.60058-6,26.34325,26.34325,0,0,1-.60058-6,25.16975,25.16975,0,0,1,.60058-6,26.34325,26.34325,0,0,1-.60058-6,25.16975,25.16975,0,0,1,.60058-6,26.34325,26.34325,0,0,1-.60058-6,25.16975,25.16975,0,0,1,.60058-6h-9a26.34325,26.34325,0,0,1-.60058-6,25.16975,25.16975,0,0,1,.60058-6h21a25.32759,25.32759,0,0,1,.59961,6,26.514,26.514,0,0,1-.59961,6,25.32759,25.32759,0,0,1,.59961,6,26.514,26.514,0,0,1-.59961,6,25.32759,25.32759,0,0,1,.59961,6,26.514,26.514,0,0,1-.59961,6,25.32759,25.32759,0,0,1,.59961,6,26.514,26.514,0,0,1-.59961,6,25.32759,25.32759,0,0,1,.59961,6,26.514,26.514,0,0,1-.59961,6,25.32759,25.32759,0,0,1,.59961,6,26.514,26.514,0,0,1-.59961,6h12A25.32759,25.32759,0,0,1,728.54982,111.083Z"/>
      <path class="e" d="M762.44924,105.083h15a25.32759,25.32759,0,0,1,.59961,6,26.514,26.514,0,0,1-.59961,6h-24a26.34264,26.34264,0,0,1-.60059-6,25.16917,25.16917,0,0,1,.60059-6h-7.5a26.34264,26.34264,0,0,1-.60059-6,25.16917,25.16917,0,0,1,.60059-6,26.34264,26.34264,0,0,1-.60059-6,25.16917,25.16917,0,0,1,.60059-6,26.34264,26.34264,0,0,1-.60059-6,25.16917,25.16917,0,0,1,.60059-6,26.34264,26.34264,0,0,1-.60059-6,25.16917,25.16917,0,0,1,.60059-6h12a25.32759,25.32759,0,0,1,.59961,6,26.514,26.514,0,0,1-.59961,6,25.32759,25.32759,0,0,1,.59961,6,26.514,26.514,0,0,1-.59961,6,25.32759,25.32759,0,0,1,.59961,6,26.514,26.514,0,0,1-.59961,6h4.5a25.32759,25.32759,0,0,1,.59961,6A26.514,26.514,0,0,1,762.44924,105.083Zm32.09961-30a26.514,26.514,0,0,1-.59961,6,25.32759,25.32759,0,0,1,.59961,6,26.514,26.514,0,0,1-.59961,6,25.32759,25.32759,0,0,1,.59961,6,26.514,26.514,0,0,1-.59961,6,25.32759,25.32759,0,0,1,.59961,6,26.514,26.514,0,0,1-.59961,6h-12a26.34264,26.34264,0,0,1-.60059-6,25.16917,25.16917,0,0,1,.60059-6h-4.5a26.34264,26.34264,0,0,1-.60059-6,25.16917,25.16917,0,0,1,.60059-6h4.5a26.34264,26.34264,0,0,1-.60059-6,25.16917,25.16917,0,0,1,.60059-6,26.34264,26.34264,0,0,1-.60059-6,25.16917,25.16917,0,0,1,.60059-6,26.34264,26.34264,0,0,1-.60059-6,25.16917,25.16917,0,0,1,.60059-6h12a25.32759,25.32759,0,0,1,.59961,6,26.514,26.514,0,0,1-.59961,6A25.32759,25.32759,0,0,1,794.54885,75.083Z"/>
      <path class="e" d="M848.54787,111.083a26.514,26.514,0,0,1-.59961,6h-36a26.34268,26.34268,0,0,1-.60058-6,25.16923,25.16923,0,0,1,.60058-6h12a26.34268,26.34268,0,0,1-.60058-6,25.16923,25.16923,0,0,1,.60058-6,26.34268,26.34268,0,0,1-.60058-6,25.16923,25.16923,0,0,1,.60058-6,26.34268,26.34268,0,0,1-.60058-6,25.16923,25.16923,0,0,1,.60058-6h-9a26.34268,26.34268,0,0,1-.60058-6,25.16923,25.16923,0,0,1,.60058-6h21a25.32759,25.32759,0,0,1,.59961,6,26.514,26.514,0,0,1-.59961,6,25.32759,25.32759,0,0,1,.59961,6,26.514,26.514,0,0,1-.59961,6,25.32759,25.32759,0,0,1,.59961,6,26.514,26.514,0,0,1-.59961,6,25.32759,25.32759,0,0,1,.59961,6,26.514,26.514,0,0,1-.59961,6h12A25.32759,25.32759,0,0,1,848.54787,111.083Zm-24.59961-66a26.34268,26.34268,0,0,1-.60058-6,25.16923,25.16923,0,0,1,.60058-6h12a25.32759,25.32759,0,0,1,.59961,6,26.514,26.514,0,0,1-.59961,6Z"/>
      <path class="e" d="M904.94729,69.083a25.32817,25.32817,0,0,1,.5996,6,26.5146,26.5146,0,0,1-.5996,6h-30a26.34264,26.34264,0,0,1-.60059-6,25.16917,25.16917,0,0,1,.60059-6Z"/>
      <path class="e" d="M933.44631,69.083h4.5a25.32759,25.32759,0,0,1,.59961,6,26.514,26.514,0,0,1-.59961,6,25.32759,25.32759,0,0,1,.59961,6,26.514,26.514,0,0,1-.59961,6,25.32759,25.32759,0,0,1,.59961,6,26.514,26.514,0,0,1-.59961,6,25.32759,25.32759,0,0,1,.59961,6,26.514,26.514,0,0,1-.59961,6h-12a26.34264,26.34264,0,0,1-.60059-6,25.16917,25.16917,0,0,1,.60059-6,26.34264,26.34264,0,0,1-.60059-6,25.16917,25.16917,0,0,1,.60059-6,26.34264,26.34264,0,0,1-.60059-6,25.16917,25.16917,0,0,1,.60059-6,26.34264,26.34264,0,0,1-.60059-6,25.16917,25.16917,0,0,1,.60059-6,26.34264,26.34264,0,0,1-.60059-6,25.16917,25.16917,0,0,1,.60059-6h7.5a25.32759,25.32759,0,0,1,.59961,6A26.514,26.514,0,0,1,933.44631,69.083Zm16.5,0h4.5a25.32759,25.32759,0,0,1,.59961,6,26.514,26.514,0,0,1-.59961,6,25.32759,25.32759,0,0,1,.59961,6,26.514,26.514,0,0,1-.59961,6,25.32759,25.32759,0,0,1,.59961,6,26.514,26.514,0,0,1-.59961,6,25.32759,25.32759,0,0,1,.59961,6,26.514,26.514,0,0,1-.59961,6h-9a26.34264,26.34264,0,0,1-.60059-6,25.16917,25.16917,0,0,1,.60059-6,26.34264,26.34264,0,0,1-.60059-6,25.16917,25.16917,0,0,1,.60059-6,26.34264,26.34264,0,0,1-.60059-6,25.16917,25.16917,0,0,1,.60059-6,26.34264,26.34264,0,0,1-.60059-6,25.16917,25.16917,0,0,1,.60059-6h-7.5a26.34264,26.34264,0,0,1-.60059-6,25.16917,25.16917,0,0,1,.60059-6h12a25.32759,25.32759,0,0,1,.59961,6A26.514,26.514,0,0,1,949.94631,69.083Zm24.59961,18a26.514,26.514,0,0,1-.59961,6,25.32759,25.32759,0,0,1,.59961,6,26.514,26.514,0,0,1-.59961,6,25.32759,25.32759,0,0,1,.59961,6,26.514,26.514,0,0,1-.59961,6h-12a26.34264,26.34264,0,0,1-.60059-6,25.16917,25.16917,0,0,1,.60059-6,26.34264,26.34264,0,0,1-.60059-6,25.16917,25.16917,0,0,1,.60059-6,26.34264,26.34264,0,0,1-.60059-6,25.16917,25.16917,0,0,1,.60059-6,26.34264,26.34264,0,0,1-.60059-6,25.16917,25.16917,0,0,1,.60059-6h-7.5a26.34264,26.34264,0,0,1-.60059-6,25.16917,25.16917,0,0,1,.60059-6h13.5a25.32759,25.32759,0,0,1,.59961,6,26.514,26.514,0,0,1-.59961,6h6a25.32759,25.32759,0,0,1,.59961,6,26.514,26.514,0,0,1-.59961,6A25.32759,25.32759,0,0,1,974.54592,87.083Z"/>
      <path class="e" d="M1028.54592,111.083a26.50965,26.50965,0,0,1-.60059,6h-36a26.40255,26.40255,0,0,1-.59961-6,25.22562,25.22562,0,0,1,.59961-6h12a26.40255,26.40255,0,0,1-.59961-6,25.22562,25.22562,0,0,1,.59961-6,26.40255,26.40255,0,0,1-.59961-6,25.22562,25.22562,0,0,1,.59961-6,26.40255,26.40255,0,0,1-.59961-6,25.22562,25.22562,0,0,1,.59961-6h-9a26.40255,26.40255,0,0,1-.59961-6,25.22562,25.22562,0,0,1,.59961-6h21a25.322,25.322,0,0,1,.60059,6,26.50965,26.50965,0,0,1-.60059,6,25.322,25.322,0,0,1,.60059,6,26.50965,26.50965,0,0,1-.60059,6,25.322,25.322,0,0,1,.60059,6,26.50965,26.50965,0,0,1-.60059,6,25.322,25.322,0,0,1,.60059,6,26.50965,26.50965,0,0,1-.60059,6h12A25.322,25.322,0,0,1,1028.54592,111.083Zm-24.60059-66a26.40255,26.40255,0,0,1-.59961-6,25.22562,25.22562,0,0,1,.59961-6h12a25.322,25.322,0,0,1,.60059,6,26.50965,26.50965,0,0,1-.60059,6Z"/>
      <path class="e" d="M1093.94436,93.083a25.32258,25.32258,0,0,1,.60058,6,26.51026,26.51026,0,0,1-.60058,6h-6a25.32258,25.32258,0,0,1,.60058,6,26.51026,26.51026,0,0,1-.60058,6h-30a26.402,26.402,0,0,1-.59961-6,25.2251,25.2251,0,0,1,.59961-6h-6a26.402,26.402,0,0,1-.59961-6,25.2251,25.2251,0,0,1,.59961-6h-6a26.402,26.402,0,0,1-.59961-6,25.2251,25.2251,0,0,1,.59961-6h6a26.402,26.402,0,0,1-.59961-6,25.2251,25.2251,0,0,1,.59961-6h6a26.402,26.402,0,0,1-.59961-6,25.2251,25.2251,0,0,1,.59961-6h30a25.32258,25.32258,0,0,1,.60058,6,26.51026,26.51026,0,0,1-.60058,6h6a25.32258,25.32258,0,0,1,.60058,6,26.51026,26.51026,0,0,1-.60058,6h-12a26.402,26.402,0,0,1-.59961-6,25.2251,25.2251,0,0,1,.59961-6h-18a25.32258,25.32258,0,0,1,.60058,6,26.51026,26.51026,0,0,1-.60058,6h-6a25.32258,25.32258,0,0,1,.60058,6,26.51026,26.51026,0,0,1-.60058,6h6a25.32258,25.32258,0,0,1,.60058,6,26.51026,26.51026,0,0,1-.60058,6h18a26.402,26.402,0,0,1-.59961-6,25.2251,25.2251,0,0,1,.59961-6Z"/>
      <path class="e" d="M1154.544,75.083a26.50969,26.50969,0,0,1-.60058,6h-12a26.40255,26.40255,0,0,1-.59961-6,25.22562,25.22562,0,0,1,.59961-6h-10.5a25.32206,25.32206,0,0,1,.60058,6,26.50969,26.50969,0,0,1-.60058,6h-4.5a25.32206,25.32206,0,0,1,.60058,6,26.50969,26.50969,0,0,1-.60058,6,25.32206,25.32206,0,0,1,.60058,6,26.50969,26.50969,0,0,1-.60058,6h9a25.32206,25.32206,0,0,1,.60058,6,26.50969,26.50969,0,0,1-.60058,6h-30a26.40255,26.40255,0,0,1-.59961-6,25.22562,25.22562,0,0,1,.59961-6h9a26.40255,26.40255,0,0,1-.59961-6,25.22562,25.22562,0,0,1,.59961-6,26.40255,26.40255,0,0,1-.59961-6,25.22562,25.22562,0,0,1,.59961-6,26.40255,26.40255,0,0,1-.59961-6,25.22562,25.22562,0,0,1,.59961-6h-9a26.40255,26.40255,0,0,1-.59961-6,25.22562,25.22562,0,0,1,.59961-6h15a25.32206,25.32206,0,0,1,.60058,6,26.50969,26.50969,0,0,1-.60058,6h6a26.40255,26.40255,0,0,1-.59961-6,25.22562,25.22562,0,0,1,.59961-6h22.5a25.32206,25.32206,0,0,1,.60058,6,26.50969,26.50969,0,0,1-.60058,6h4.5A25.32206,25.32206,0,0,1,1154.544,75.083Z"/>
      <path class="e" d="M1213.9424,93.083h-4.5a25.322,25.322,0,0,1,.60059,6,26.50965,26.50965,0,0,1-.60059,6h-7.5a25.322,25.322,0,0,1,.60059,6,26.50965,26.50965,0,0,1-.60059,6h-24a26.40255,26.40255,0,0,1-.59961-6,25.22562,25.22562,0,0,1,.59961-6h-7.5a26.40255,26.40255,0,0,1-.59961-6,25.22562,25.22562,0,0,1,.59961-6h-4.5a26.40255,26.40255,0,0,1-.59961-6,25.22562,25.22562,0,0,1,.59961-6h4.5a26.40255,26.40255,0,0,1-.59961-6,25.22562,25.22562,0,0,1,.59961-6h7.5a26.40255,26.40255,0,0,1-.59961-6,25.22562,25.22562,0,0,1,.59961-6h24a25.322,25.322,0,0,1,.60059,6,26.50965,26.50965,0,0,1-.60059,6h7.5a25.322,25.322,0,0,1,.60059,6,26.50965,26.50965,0,0,1-.60059,6h4.5a25.322,25.322,0,0,1,.60059,6A26.50965,26.50965,0,0,1,1213.9424,93.083Zm-12,0a26.40255,26.40255,0,0,1-.59961-6,25.22562,25.22562,0,0,1,.59961-6h-4.5a26.40255,26.40255,0,0,1-.59961-6,25.22562,25.22562,0,0,1,.59961-6h-15a25.322,25.322,0,0,1,.60059,6,26.50965,26.50965,0,0,1-.60059,6h-4.5a25.322,25.322,0,0,1,.60059,6,26.50965,26.50965,0,0,1-.60059,6h4.5a25.322,25.322,0,0,1,.60059,6,26.50965,26.50965,0,0,1-.60059,6h15a26.40255,26.40255,0,0,1-.59961-6,25.22562,25.22562,0,0,1,.59961-6Z"/>
      <path class="c" d="M1245.292,27.083a26.51026,26.51026,0,0,1-.60058,6h-7.5a26.40255,26.40255,0,0,1-.59961-6,25.22562,25.22562,0,0,1,.59961-6h7.5A25.32258,25.32258,0,0,1,1245.292,27.083Zm-8.10058,90h7.5a25.31113,25.31113,0,0,1,.60058,6,26.54055,26.54055,0,0,1-.60058,6h-7.5a26.43255,26.43255,0,0,1-.59961-6A25.21426,25.21426,0,0,1,1237.19143,117.083Zm23.85058-42a26.51026,26.51026,0,0,1-.60058,6,25.32258,25.32258,0,0,1,.60058,6,26.51026,26.51026,0,0,1-.60058,6h-4.5a25.32258,25.32258,0,0,1,.60058,6,26.51026,26.51026,0,0,1-.60058,6h-3.75a25.32258,25.32258,0,0,1,.60058,6,26.51026,26.51026,0,0,1-.60058,6h-7.5a26.40255,26.40255,0,0,1-.59961-6,25.22562,25.22562,0,0,1,.59961-6h3.75a26.40255,26.40255,0,0,1-.59961-6,25.22562,25.22562,0,0,1,.59961-6,26.40255,26.40255,0,0,1-.59961-6,25.22562,25.22562,0,0,1,.59961-6,26.40255,26.40255,0,0,1-.59961-6,25.22562,25.22562,0,0,1,.59961-6,26.40255,26.40255,0,0,1-.59961-6,25.22562,25.22562,0,0,1,.59961-6,26.40255,26.40255,0,0,1-.59961-6,25.22562,25.22562,0,0,1,.59961-6h-3.75a26.40255,26.40255,0,0,1-.59961-6,25.22562,25.22562,0,0,1,.59961-6h7.5a25.32258,25.32258,0,0,1,.60058,6,26.51026,26.51026,0,0,1-.60058,6h3.75a25.32258,25.32258,0,0,1,.60058,6,26.51026,26.51026,0,0,1-.60058,6h4.5a25.32258,25.32258,0,0,1,.60058,6,26.51026,26.51026,0,0,1-.60058,6A25.32258,25.32258,0,0,1,1261.042,75.083Z"/>
    </g>
  </g>
</svg>
