<svg id="Capa_1" data-name="Capa 1" xmlns="http://www.w3.org/2000/svg" viewBox="0 0 1232.4053 150.1667">
  <defs>
    <style>
      .cls-1 {
        fill: #1e2630;
      }

      .cls-2 {
        fill: #0d1117;
      }

      .cls-3 {
        fill: #fff;
      }

      .cls-4 {
        fill: #6100bf;
      }

      .cls-5 {
        fill: #f39;
      }
    </style>
  </defs>
  <g id="lui-mini">
    <g id="bg">
      <rect class="cls-1" width="1232.4053" height="7.1667"/>
      <rect class="cls-1" y="143" width="1232.4053" height="7.1667"/>
      <rect class="cls-2" y="5.5833" width="1232.4053" height="139"/>
    </g>
    <g>
      <path class="cls-3" d="M68.5615,111.0833a26.508,26.508,0,0,1-.6,6h-36a26.3767,26.3767,0,0,1-.6-6,25.2073,25.2073,0,0,1,.6-6h12a26.3767,26.3767,0,0,1-.6-6,25.2073,25.2073,0,0,1,.6-6,26.3767,26.3767,0,0,1-.6-6,25.2073,25.2073,0,0,1,.6-6,26.3767,26.3767,0,0,1-.6-6,25.2073,25.2073,0,0,1,.6-6,26.3767,26.3767,0,0,1-.6-6,25.2073,25.2073,0,0,1,.6-6,26.3767,26.3767,0,0,1-.6-6,25.2073,25.2073,0,0,1,.6-6h-9a26.3767,26.3767,0,0,1-.6-6,25.2073,25.2073,0,0,1,.6-6h21a25.3275,25.3275,0,0,1,.6,6,26.508,26.508,0,0,1-.6,6,25.3275,25.3275,0,0,1,.6,6,26.508,26.508,0,0,1-.6,6,25.3275,25.3275,0,0,1,.6,6,26.508,26.508,0,0,1-.6,6,25.3275,25.3275,0,0,1,.6,6,26.508,26.508,0,0,1-.6,6,25.3275,25.3275,0,0,1,.6,6,26.508,26.508,0,0,1-.6,6,25.3275,25.3275,0,0,1,.6,6,26.508,26.508,0,0,1-.6,6h12A25.3275,25.3275,0,0,1,68.5615,111.0833Z"/>
      <path class="cls-3" d="M102.4605,105.0833h15a25.3327,25.3327,0,0,1,.6,6,26.5137,26.5137,0,0,1-.6,6h-24a26.3711,26.3711,0,0,1-.6-6,25.2021,25.2021,0,0,1,.6-6h-7.5a26.3711,26.3711,0,0,1-.6-6,25.2021,25.2021,0,0,1,.6-6,26.3711,26.3711,0,0,1-.6-6,25.2021,25.2021,0,0,1,.6-6,26.3711,26.3711,0,0,1-.6-6,25.2021,25.2021,0,0,1,.6-6,26.3711,26.3711,0,0,1-.6-6,25.2021,25.2021,0,0,1,.6-6h12a25.3327,25.3327,0,0,1,.6,6,26.5137,26.5137,0,0,1-.6,6,25.3327,25.3327,0,0,1,.6,6,26.5137,26.5137,0,0,1-.6,6,25.3327,25.3327,0,0,1,.6,6,26.5137,26.5137,0,0,1-.6,6h4.5a25.3327,25.3327,0,0,1,.6,6A26.5137,26.5137,0,0,1,102.4605,105.0833Zm32.1-30a26.5137,26.5137,0,0,1-.6,6,25.3327,25.3327,0,0,1,.6,6,26.5137,26.5137,0,0,1-.6,6,25.3327,25.3327,0,0,1,.6,6,26.5137,26.5137,0,0,1-.6,6,25.3327,25.3327,0,0,1,.6,6,26.5137,26.5137,0,0,1-.6,6h-12a26.3711,26.3711,0,0,1-.6-6,25.2021,25.2021,0,0,1,.6-6h-4.5a26.3711,26.3711,0,0,1-.6-6,25.2021,25.2021,0,0,1,.6-6h4.5a26.3711,26.3711,0,0,1-.6-6,25.2021,25.2021,0,0,1,.6-6,26.3711,26.3711,0,0,1-.6-6,25.2021,25.2021,0,0,1,.6-6,26.3711,26.3711,0,0,1-.6-6,25.2021,25.2021,0,0,1,.6-6h12a25.3327,25.3327,0,0,1,.6,6,26.5137,26.5137,0,0,1-.6,6A25.3327,25.3327,0,0,1,134.5606,75.0833Z"/>
      <path class="cls-3" d="M193.96,93.0833a25.3327,25.3327,0,0,1,.6,6,26.5137,26.5137,0,0,1-.6,6h-6a25.3327,25.3327,0,0,1,.6,6,26.5137,26.5137,0,0,1-.6,6h-30a26.3711,26.3711,0,0,1-.6-6,25.2021,25.2021,0,0,1,.6-6h-6a26.3711,26.3711,0,0,1-.6-6,25.2021,25.2021,0,0,1,.6-6h-6a26.3711,26.3711,0,0,1-.6-6,25.2021,25.2021,0,0,1,.6-6h6a26.3711,26.3711,0,0,1-.6-6,25.2021,25.2021,0,0,1,.6-6h6a26.3711,26.3711,0,0,1-.6-6,25.2021,25.2021,0,0,1,.6-6h30a25.3327,25.3327,0,0,1,.6,6,26.5137,26.5137,0,0,1-.6,6h6a25.3327,25.3327,0,0,1,.6,6,26.5137,26.5137,0,0,1-.6,6h-12a26.3711,26.3711,0,0,1-.6-6,25.2021,25.2021,0,0,1,.6-6h-18a25.3327,25.3327,0,0,1,.6,6,26.5137,26.5137,0,0,1-.6,6h-6a25.3327,25.3327,0,0,1,.6,6,26.5137,26.5137,0,0,1-.6,6h6a25.3327,25.3327,0,0,1,.6,6,26.5137,26.5137,0,0,1-.6,6h18a26.3711,26.3711,0,0,1-.6-6,25.2021,25.2021,0,0,1,.6-6Z"/>
      <path class="cls-3" d="M254.5586,111.0833a26.508,26.508,0,0,1-.6,6h-12a26.3711,26.3711,0,0,1-.6-6,25.2021,25.2021,0,0,1,.6-6h-6a26.3711,26.3711,0,0,1-.6-6,25.2021,25.2021,0,0,1,.6-6h-18a25.3275,25.3275,0,0,1,.6,6,26.508,26.508,0,0,1-.6,6h18a25.3275,25.3275,0,0,1,.6,6,26.508,26.508,0,0,1-.6,6h-24a26.3711,26.3711,0,0,1-.6-6,25.2021,25.2021,0,0,1,.6-6h-6a26.3711,26.3711,0,0,1-.6-6,25.2021,25.2021,0,0,1,.6-6h6a26.3711,26.3711,0,0,1-.6-6,25.2021,25.2021,0,0,1,.6-6h24a26.3711,26.3711,0,0,1-.6-6,25.2021,25.2021,0,0,1,.6-6h-21a26.3711,26.3711,0,0,1-.6-6,25.2021,25.2021,0,0,1,.6-6h27a25.3275,25.3275,0,0,1,.6,6,26.508,26.508,0,0,1-.6,6h6a25.3275,25.3275,0,0,1,.6,6,26.508,26.508,0,0,1-.6,6,25.3275,25.3275,0,0,1,.6,6,26.508,26.508,0,0,1-.6,6,25.3275,25.3275,0,0,1,.6,6,26.508,26.508,0,0,1-.6,6h6A25.3275,25.3275,0,0,1,254.5586,111.0833Z"/>
      <path class="cls-3" d="M310.9575,105.0833h-6a25.3275,25.3275,0,0,1,.6,6,26.508,26.508,0,0,1-.6,6h-33a26.3767,26.3767,0,0,1-.6-6,25.2073,25.2073,0,0,1,.6-6h27a26.3767,26.3767,0,0,1-.6-6,25.2073,25.2073,0,0,1,.6-6h-24a26.3767,26.3767,0,0,1-.6-6,25.2073,25.2073,0,0,1,.6-6h-6a26.3767,26.3767,0,0,1-.6-6,25.2073,25.2073,0,0,1,.6-6h6a26.3767,26.3767,0,0,1-.6-6,25.2073,25.2073,0,0,1,.6-6h33a25.3275,25.3275,0,0,1,.6,6,26.508,26.508,0,0,1-.6,6h-27a25.3275,25.3275,0,0,1,.6,6,26.508,26.508,0,0,1-.6,6h24a25.3275,25.3275,0,0,1,.6,6,26.508,26.508,0,0,1-.6,6h6a25.3275,25.3275,0,0,1,.6,6A26.508,26.508,0,0,1,310.9575,105.0833Z"/>
      <path class="cls-3" d="M357.4571,105.0833a25.3333,25.3333,0,0,1,.6,6,26.5142,26.5142,0,0,1-.6,6h-15a26.3711,26.3711,0,0,1-.6-6,25.2021,25.2021,0,0,1,.6-6,26.3711,26.3711,0,0,1-.6-6,25.2021,25.2021,0,0,1,.6-6h15a25.3333,25.3333,0,0,1,.6,6A26.5142,26.5142,0,0,1,357.4571,105.0833Z"/>
      <path class="cls-4" d="M428.5562,111.0833a26.5137,26.5137,0,0,1-.6,6h-36a26.3711,26.3711,0,0,1-.6-6,25.2021,25.2021,0,0,1,.6-6h12a26.3711,26.3711,0,0,1-.6-6,25.2021,25.2021,0,0,1,.6-6,26.3711,26.3711,0,0,1-.6-6,25.2021,25.2021,0,0,1,.6-6,26.3711,26.3711,0,0,1-.6-6,25.2021,25.2021,0,0,1,.6-6,26.3711,26.3711,0,0,1-.6-6,25.2021,25.2021,0,0,1,.6-6,26.3711,26.3711,0,0,1-.6-6,25.2021,25.2021,0,0,1,.6-6h-9a26.3711,26.3711,0,0,1-.6-6,25.2021,25.2021,0,0,1,.6-6h21a25.3327,25.3327,0,0,1,.6,6,26.5137,26.5137,0,0,1-.6,6,25.3327,25.3327,0,0,1,.6,6,26.5137,26.5137,0,0,1-.6,6,25.3327,25.3327,0,0,1,.6,6,26.5137,26.5137,0,0,1-.6,6,25.3327,25.3327,0,0,1,.6,6,26.5137,26.5137,0,0,1-.6,6,25.3327,25.3327,0,0,1,.6,6,26.5137,26.5137,0,0,1-.6,6,25.3327,25.3327,0,0,1,.6,6,26.5137,26.5137,0,0,1-.6,6h12A25.3327,25.3327,0,0,1,428.5562,111.0833Z"/>
      <path class="cls-4" d="M494.5552,111.0833a26.5137,26.5137,0,0,1-.6,6h-12a26.3711,26.3711,0,0,1-.6-6,25.2021,25.2021,0,0,1,.6-6h-6a26.3711,26.3711,0,0,1-.6-6,25.2021,25.2021,0,0,1,.6-6h-18a25.3327,25.3327,0,0,1,.6,6,26.5137,26.5137,0,0,1-.6,6h18a25.3327,25.3327,0,0,1,.6,6,26.5137,26.5137,0,0,1-.6,6h-24a26.3711,26.3711,0,0,1-.6-6,25.2021,25.2021,0,0,1,.6-6h-6a26.3711,26.3711,0,0,1-.6-6,25.2021,25.2021,0,0,1,.6-6h6a26.3711,26.3711,0,0,1-.6-6,25.2021,25.2021,0,0,1,.6-6h24a26.3711,26.3711,0,0,1-.6-6,25.2021,25.2021,0,0,1,.6-6h-21a26.3711,26.3711,0,0,1-.6-6,25.2021,25.2021,0,0,1,.6-6h27a25.3327,25.3327,0,0,1,.6,6,26.5137,26.5137,0,0,1-.6,6h6a25.3327,25.3327,0,0,1,.6,6,26.5137,26.5137,0,0,1-.6,6,25.3327,25.3327,0,0,1,.6,6,26.5137,26.5137,0,0,1-.6,6,25.3327,25.3327,0,0,1,.6,6,26.5137,26.5137,0,0,1-.6,6h6A25.3327,25.3327,0,0,1,494.5552,111.0833Z"/>
      <path class="cls-4" d="M518.5542,99.0833a26.508,26.508,0,0,1-.6,6h-6a25.3275,25.3275,0,0,1,.6,6,26.508,26.508,0,0,1-.6,6h-6a26.3711,26.3711,0,0,1-.6-6,25.2021,25.2021,0,0,1,.6-6,26.3711,26.3711,0,0,1-.6-6,25.2021,25.2021,0,0,1,.6-6,26.3711,26.3711,0,0,1-.6-6,25.2021,25.2021,0,0,1,.6-6,26.3711,26.3711,0,0,1-.6-6,25.2021,25.2021,0,0,1,.6-6,26.3711,26.3711,0,0,1-.6-6,25.2021,25.2021,0,0,1,.6-6,26.3711,26.3711,0,0,1-.6-6,25.2021,25.2021,0,0,1,.6-6,26.3711,26.3711,0,0,1-.6-6,25.2021,25.2021,0,0,1,.6-6h12a25.3275,25.3275,0,0,1,.6,6,26.508,26.508,0,0,1-.6,6,25.3275,25.3275,0,0,1,.6,6,26.508,26.508,0,0,1-.6,6,25.3275,25.3275,0,0,1,.6,6,26.508,26.508,0,0,1-.6,6h6a25.3275,25.3275,0,0,1,.6,6,26.508,26.508,0,0,1-.6,6h-6a25.3275,25.3275,0,0,1,.6,6,26.508,26.508,0,0,1-.6,6A25.3275,25.3275,0,0,1,518.5542,99.0833Zm-.6,6h18a25.3275,25.3275,0,0,1,.6,6,26.508,26.508,0,0,1-.6,6h-18a26.3711,26.3711,0,0,1-.6-6A25.2021,25.2021,0,0,1,517.9541,105.0833Zm36-12h-6a25.3275,25.3275,0,0,1,.6,6,26.508,26.508,0,0,1-.6,6h-12a26.3711,26.3711,0,0,1-.6-6,25.2021,25.2021,0,0,1,.6-6h6a26.3711,26.3711,0,0,1-.6-6,25.2021,25.2021,0,0,1,.6-6h-6a26.3711,26.3711,0,0,1-.6-6,25.2021,25.2021,0,0,1,.6-6h-12a26.3711,26.3711,0,0,1-.6-6,25.2021,25.2021,0,0,1,.6-6h18a25.3275,25.3275,0,0,1,.6,6,26.508,26.508,0,0,1-.6,6h6a25.3275,25.3275,0,0,1,.6,6,26.508,26.508,0,0,1-.6,6h6a25.3275,25.3275,0,0,1,.6,6A26.508,26.508,0,0,1,553.9541,93.0833Z"/>
      <path class="cls-4" d="M610.9531,105.0833h-6a25.3275,25.3275,0,0,1,.6,6,26.508,26.508,0,0,1-.6,6h-33a26.3767,26.3767,0,0,1-.6-6,25.2073,25.2073,0,0,1,.6-6h27a26.3767,26.3767,0,0,1-.6-6,25.2073,25.2073,0,0,1,.6-6h-24a26.3767,26.3767,0,0,1-.6-6,25.2073,25.2073,0,0,1,.6-6h-6a26.3767,26.3767,0,0,1-.6-6,25.2073,25.2073,0,0,1,.6-6h6a26.3767,26.3767,0,0,1-.6-6,25.2073,25.2073,0,0,1,.6-6h33a25.3275,25.3275,0,0,1,.6,6,26.508,26.508,0,0,1-.6,6h-27a25.3275,25.3275,0,0,1,.6,6,26.508,26.508,0,0,1-.6,6h24a25.3275,25.3275,0,0,1,.6,6,26.508,26.508,0,0,1-.6,6h6a25.3275,25.3275,0,0,1,.6,6A26.508,26.508,0,0,1,610.9531,105.0833Z"/>
      <path class="cls-3" d="M655.8023,111.0833a26.5137,26.5137,0,0,1-.6,6h-7.5a26.3711,26.3711,0,0,1-.6-6,25.2021,25.2021,0,0,1,.6-6h-3.75a26.3711,26.3711,0,0,1-.6-6,25.2021,25.2021,0,0,1,.6-6h-4.5a26.3711,26.3711,0,0,1-.6-6,25.2021,25.2021,0,0,1,.6-6,26.3711,26.3711,0,0,1-.6-6,25.2021,25.2021,0,0,1,.6-6,26.3711,26.3711,0,0,1-.6-6,25.2021,25.2021,0,0,1,.6-6h4.5a26.3711,26.3711,0,0,1-.6-6,25.2021,25.2021,0,0,1,.6-6h3.75a26.3711,26.3711,0,0,1-.6-6,25.2021,25.2021,0,0,1,.6-6h7.5a25.3327,25.3327,0,0,1,.6,6,26.5137,26.5137,0,0,1-.6,6h-3.75a25.3327,25.3327,0,0,1,.6,6,26.5137,26.5137,0,0,1-.6,6,25.3327,25.3327,0,0,1,.6,6,26.5137,26.5137,0,0,1-.6,6,25.3327,25.3327,0,0,1,.6,6,26.5137,26.5137,0,0,1-.6,6,25.3327,25.3327,0,0,1,.6,6,26.5137,26.5137,0,0,1-.6,6,25.3327,25.3327,0,0,1,.6,6,26.5137,26.5137,0,0,1-.6,6h3.75A25.3327,25.3327,0,0,1,655.8023,111.0833Zm6.9-78h-7.5a26.3711,26.3711,0,0,1-.6-6,25.2021,25.2021,0,0,1,.6-6h7.5a25.3327,25.3327,0,0,1,.6,6A26.5137,26.5137,0,0,1,662.7022,33.0833Zm0,84a25.3216,25.3216,0,0,1,.6,6,26.5441,26.5441,0,0,1-.6,6h-7.5a26.4011,26.4011,0,0,1-.6-6,25.1911,25.1911,0,0,1,.6-6Z"/>
      <path class="cls-5" d="M728.5513,111.0833a26.5159,26.5159,0,0,1-.6,6h-36a26.3711,26.3711,0,0,1-.6-6,25.2021,25.2021,0,0,1,.6-6h12a26.3711,26.3711,0,0,1-.6-6,25.2021,25.2021,0,0,1,.6-6,26.3711,26.3711,0,0,1-.6-6,25.2021,25.2021,0,0,1,.6-6,26.3711,26.3711,0,0,1-.6-6,25.2021,25.2021,0,0,1,.6-6,26.3711,26.3711,0,0,1-.6-6,25.2021,25.2021,0,0,1,.6-6,26.3711,26.3711,0,0,1-.6-6,25.2021,25.2021,0,0,1,.6-6h-9a26.3711,26.3711,0,0,1-.6-6,25.2021,25.2021,0,0,1,.6-6h21a25.3327,25.3327,0,0,1,.6,6,26.5137,26.5137,0,0,1-.6,6,25.3327,25.3327,0,0,1,.6,6,26.5137,26.5137,0,0,1-.6,6,25.3327,25.3327,0,0,1,.6,6,26.5137,26.5137,0,0,1-.6,6,25.3327,25.3327,0,0,1,.6,6,26.5137,26.5137,0,0,1-.6,6,25.3327,25.3327,0,0,1,.6,6,26.5137,26.5137,0,0,1-.6,6,25.3327,25.3327,0,0,1,.6,6,26.5137,26.5137,0,0,1-.6,6h12A25.3356,25.3356,0,0,1,728.5513,111.0833Z"/>
      <path class="cls-5" d="M762.4507,105.0833h15a25.3356,25.3356,0,0,1,.6,6,26.5159,26.5159,0,0,1-.6,6h-24a26.4017,26.4017,0,0,1-.6-6,25.231,25.231,0,0,1,.6-6h-7.5a26.4017,26.4017,0,0,1-.6-6,25.231,25.231,0,0,1,.6-6,26.4017,26.4017,0,0,1-.6-6,25.231,25.231,0,0,1,.6-6,26.4017,26.4017,0,0,1-.6-6,25.231,25.231,0,0,1,.6-6,26.4017,26.4017,0,0,1-.6-6,25.231,25.231,0,0,1,.6-6h12a25.3356,25.3356,0,0,1,.6,6,26.5159,26.5159,0,0,1-.6,6,25.3356,25.3356,0,0,1,.6,6,26.5159,26.5159,0,0,1-.6,6,25.3356,25.3356,0,0,1,.6,6,26.5159,26.5159,0,0,1-.6,6h4.5a25.3356,25.3356,0,0,1,.6,6A26.5159,26.5159,0,0,1,762.4507,105.0833Zm32.1-30a26.5159,26.5159,0,0,1-.6,6,25.3356,25.3356,0,0,1,.6,6,26.5159,26.5159,0,0,1-.6,6,25.3356,25.3356,0,0,1,.6,6,26.5159,26.5159,0,0,1-.6,6,25.3356,25.3356,0,0,1,.6,6,26.5159,26.5159,0,0,1-.6,6h-12a26.4017,26.4017,0,0,1-.6-6,25.231,25.231,0,0,1,.6-6h-4.5a26.4017,26.4017,0,0,1-.6-6,25.231,25.231,0,0,1,.6-6h4.5a26.4017,26.4017,0,0,1-.6-6,25.231,25.231,0,0,1,.6-6,26.4017,26.4017,0,0,1-.6-6,25.231,25.231,0,0,1,.6-6,26.4017,26.4017,0,0,1-.6-6,25.231,25.231,0,0,1,.6-6h12a25.3356,25.3356,0,0,1,.6,6,26.5159,26.5159,0,0,1-.6,6A25.3356,25.3356,0,0,1,794.55,75.0833Z"/>
      <path class="cls-5" d="M848.5493,111.0833a26.51,26.51,0,0,1-.6,6h-36a26.4017,26.4017,0,0,1-.6-6,25.231,25.231,0,0,1,.6-6h12a26.4017,26.4017,0,0,1-.6-6,25.231,25.231,0,0,1,.6-6,26.4017,26.4017,0,0,1-.6-6,25.231,25.231,0,0,1,.6-6,26.4017,26.4017,0,0,1-.6-6,25.231,25.231,0,0,1,.6-6h-9a26.4017,26.4017,0,0,1-.6-6,25.231,25.231,0,0,1,.6-6h21a25.33,25.33,0,0,1,.6,6,26.51,26.51,0,0,1-.6,6,25.33,25.33,0,0,1,.6,6,26.51,26.51,0,0,1-.6,6,25.33,25.33,0,0,1,.6,6,26.51,26.51,0,0,1-.6,6,25.33,25.33,0,0,1,.6,6,26.51,26.51,0,0,1-.6,6h12A25.33,25.33,0,0,1,848.5493,111.0833Zm-24.6-66a26.4017,26.4017,0,0,1-.6-6,25.231,25.231,0,0,1,.6-6h12a25.33,25.33,0,0,1,.6,6,26.51,26.51,0,0,1-.6,6Z"/>
      <path class="cls-5" d="M904.9492,69.0833a25.33,25.33,0,0,1,.6,6,26.51,26.51,0,0,1-.6,6h-30a26.4017,26.4017,0,0,1-.6-6,25.231,25.231,0,0,1,.6-6Z"/>
      <path class="cls-5" d="M933.4483,69.0833h4.5a25.3356,25.3356,0,0,1,.6,6,26.5159,26.5159,0,0,1-.6,6,25.3356,25.3356,0,0,1,.6,6,26.5159,26.5159,0,0,1-.6,6,25.3356,25.3356,0,0,1,.6,6,26.5159,26.5159,0,0,1-.6,6,25.3356,25.3356,0,0,1,.6,6,26.5159,26.5159,0,0,1-.6,6h-12a26.4017,26.4017,0,0,1-.6-6,25.231,25.231,0,0,1,.6-6,26.4017,26.4017,0,0,1-.6-6,25.231,25.231,0,0,1,.6-6,26.4017,26.4017,0,0,1-.6-6,25.231,25.231,0,0,1,.6-6,26.4017,26.4017,0,0,1-.6-6,25.231,25.231,0,0,1,.6-6,26.4017,26.4017,0,0,1-.6-6,25.231,25.231,0,0,1,.6-6h7.5a25.3356,25.3356,0,0,1,.6,6A26.5159,26.5159,0,0,1,933.4483,69.0833Zm16.5,0h4.5a25.3356,25.3356,0,0,1,.6,6,26.5159,26.5159,0,0,1-.6,6,25.3356,25.3356,0,0,1,.6,6,26.5159,26.5159,0,0,1-.6,6,25.3356,25.3356,0,0,1,.6,6,26.5159,26.5159,0,0,1-.6,6,25.3356,25.3356,0,0,1,.6,6,26.5159,26.5159,0,0,1-.6,6h-9a26.4017,26.4017,0,0,1-.6-6,25.231,25.231,0,0,1,.6-6,26.4017,26.4017,0,0,1-.6-6,25.231,25.231,0,0,1,.6-6,26.4017,26.4017,0,0,1-.6-6,25.231,25.231,0,0,1,.6-6,26.4017,26.4017,0,0,1-.6-6,25.231,25.231,0,0,1,.6-6h-7.5a26.4017,26.4017,0,0,1-.6-6,25.231,25.231,0,0,1,.6-6h12a25.3356,25.3356,0,0,1,.6,6A26.5159,26.5159,0,0,1,949.9483,69.0833Zm24.6,18a26.5159,26.5159,0,0,1-.6,6,25.3356,25.3356,0,0,1,.6,6,26.5159,26.5159,0,0,1-.6,6,25.3356,25.3356,0,0,1,.6,6,26.5159,26.5159,0,0,1-.6,6h-12a26.4017,26.4017,0,0,1-.6-6,25.231,25.231,0,0,1,.6-6,26.4017,26.4017,0,0,1-.6-6,25.231,25.231,0,0,1,.6-6,26.4017,26.4017,0,0,1-.6-6,25.231,25.231,0,0,1,.6-6,26.4017,26.4017,0,0,1-.6-6,25.231,25.231,0,0,1,.6-6h-7.5a26.4017,26.4017,0,0,1-.6-6,25.231,25.231,0,0,1,.6-6h13.5a25.3356,25.3356,0,0,1,.6,6,26.5159,26.5159,0,0,1-.6,6h6a25.3356,25.3356,0,0,1,.6,6,26.5159,26.5159,0,0,1-.6,6A25.3356,25.3356,0,0,1,974.5479,87.0833Z"/>
      <path class="cls-5" d="M1028.5469,111.0833a26.5159,26.5159,0,0,1-.6,6h-36a26.4017,26.4017,0,0,1-.6-6,25.231,25.231,0,0,1,.6-6h12a26.4017,26.4017,0,0,1-.6-6,25.231,25.231,0,0,1,.6-6,26.4017,26.4017,0,0,1-.6-6,25.231,25.231,0,0,1,.6-6,26.4017,26.4017,0,0,1-.6-6,25.231,25.231,0,0,1,.6-6h-9a26.4017,26.4017,0,0,1-.6-6,25.231,25.231,0,0,1,.6-6h21a25.3356,25.3356,0,0,1,.6,6,26.5159,26.5159,0,0,1-.6,6,25.3356,25.3356,0,0,1,.6,6,26.5159,26.5159,0,0,1-.6,6,25.3356,25.3356,0,0,1,.6,6,26.5159,26.5159,0,0,1-.6,6,25.3356,25.3356,0,0,1,.6,6,26.5159,26.5159,0,0,1-.6,6h12A25.3356,25.3356,0,0,1,1028.5469,111.0833Zm-24.6-66a26.4017,26.4017,0,0,1-.6-6,25.231,25.231,0,0,1,.6-6h12a25.3356,25.3356,0,0,1,.6,6,26.5159,26.5159,0,0,1-.6,6Z"/>
      <path class="cls-5" d="M1056.4463,69.0833h6a25.3356,25.3356,0,0,1,.6,6,26.5159,26.5159,0,0,1-.6,6h-4.5a25.3356,25.3356,0,0,1,.6,6,26.5159,26.5159,0,0,1-.6,6,25.3356,25.3356,0,0,1,.6,6,26.5159,26.5159,0,0,1-.6,6,25.3356,25.3356,0,0,1,.6,6,26.5159,26.5159,0,0,1-.6,6h-12a26.4017,26.4017,0,0,1-.6-6,25.231,25.231,0,0,1,.6-6,26.4017,26.4017,0,0,1-.6-6,25.231,25.231,0,0,1,.6-6,26.4017,26.4017,0,0,1-.6-6,25.231,25.231,0,0,1,.6-6,26.4017,26.4017,0,0,1-.6-6,25.231,25.231,0,0,1,.6-6,26.4017,26.4017,0,0,1-.6-6,25.231,25.231,0,0,1,.6-6h10.5a25.3356,25.3356,0,0,1,.6,6A26.5159,26.5159,0,0,1,1056.4463,69.0833Zm38.1,18a26.5159,26.5159,0,0,1-.6,6,25.3356,25.3356,0,0,1,.6,6,26.5159,26.5159,0,0,1-.6,6,25.3356,25.3356,0,0,1,.6,6,26.5159,26.5159,0,0,1-.6,6h-12a26.4017,26.4017,0,0,1-.6-6,25.231,25.231,0,0,1,.6-6,26.4017,26.4017,0,0,1-.6-6,25.231,25.231,0,0,1,.6-6,26.4017,26.4017,0,0,1-.6-6,25.231,25.231,0,0,1,.6-6,26.4017,26.4017,0,0,1-.6-6,25.231,25.231,0,0,1,.6-6h-19.5a26.4017,26.4017,0,0,1-.6-6,25.231,25.231,0,0,1,.6-6h24a25.3356,25.3356,0,0,1,.6,6,26.5159,26.5159,0,0,1-.6,6h7.5a25.3356,25.3356,0,0,1,.6,6,26.5159,26.5159,0,0,1-.6,6A25.3356,25.3356,0,0,1,1094.5459,87.0833Z"/>
      <path class="cls-5" d="M1148.5449,111.0833a26.51,26.51,0,0,1-.6,6h-36a26.4017,26.4017,0,0,1-.6-6,25.231,25.231,0,0,1,.6-6h12a26.4017,26.4017,0,0,1-.6-6,25.231,25.231,0,0,1,.6-6,26.4017,26.4017,0,0,1-.6-6,25.231,25.231,0,0,1,.6-6,26.4017,26.4017,0,0,1-.6-6,25.231,25.231,0,0,1,.6-6h-9a26.4017,26.4017,0,0,1-.6-6,25.231,25.231,0,0,1,.6-6h21a25.33,25.33,0,0,1,.6,6,26.51,26.51,0,0,1-.6,6,25.33,25.33,0,0,1,.6,6,26.51,26.51,0,0,1-.6,6,25.33,25.33,0,0,1,.6,6,26.51,26.51,0,0,1-.6,6,25.33,25.33,0,0,1,.6,6,26.51,26.51,0,0,1-.6,6h12A25.33,25.33,0,0,1,1148.5449,111.0833Zm-24.6-66a26.4017,26.4017,0,0,1-.6-6,25.231,25.231,0,0,1,.6-6h12a25.33,25.33,0,0,1,.6,6,26.51,26.51,0,0,1-.6,6Z"/>
      <path class="cls-3" d="M1185.294,27.0833a26.5159,26.5159,0,0,1-.6,6h-7.5a26.4012,26.4012,0,0,1-.6-6,25.23,25.23,0,0,1,.6-6h7.5A25.3356,25.3356,0,0,1,1185.294,27.0833Zm-8.1,90h7.5a25.3245,25.3245,0,0,1,.6,6,26.5463,26.5463,0,0,1-.6,6h-7.5a26.4313,26.4313,0,0,1-.6-6A25.2194,25.2194,0,0,1,1177.1944,117.0833Zm23.85-42a26.5159,26.5159,0,0,1-.6,6,25.3356,25.3356,0,0,1,.6,6,26.5159,26.5159,0,0,1-.6,6h-4.5a25.3356,25.3356,0,0,1,.6,6,26.5159,26.5159,0,0,1-.6,6h-3.75a25.3356,25.3356,0,0,1,.6,6,26.5159,26.5159,0,0,1-.6,6h-7.5a26.4012,26.4012,0,0,1-.6-6,25.23,25.23,0,0,1,.6-6h3.75a26.4012,26.4012,0,0,1-.6-6,25.23,25.23,0,0,1,.6-6,26.4012,26.4012,0,0,1-.6-6,25.23,25.23,0,0,1,.6-6,26.4012,26.4012,0,0,1-.6-6,25.23,25.23,0,0,1,.6-6,26.4012,26.4012,0,0,1-.6-6,25.23,25.23,0,0,1,.6-6,26.4012,26.4012,0,0,1-.6-6,25.23,25.23,0,0,1,.6-6h-3.75a26.4012,26.4012,0,0,1-.6-6,25.23,25.23,0,0,1,.6-6h7.5a25.3356,25.3356,0,0,1,.6,6,26.5159,26.5159,0,0,1-.6,6h3.75a25.3356,25.3356,0,0,1,.6,6,26.5159,26.5159,0,0,1-.6,6h4.5a25.3356,25.3356,0,0,1,.6,6,26.5159,26.5159,0,0,1-.6,6A25.3356,25.3356,0,0,1,1201.044,75.0833Z"/>
    </g>
  </g>
</svg>
